<?xml version="1.0" encoding="utf-8"?>
<!-- Generator: Adobe Illustrator 24.0.2, SVG Export Plug-In . SVG Version: 6.00 Build 0)  -->
<svg version="1.1" id="Capa_1" xmlns="http://www.w3.org/2000/svg" xmlns:xlink="http://www.w3.org/1999/xlink" x="0px" y="0px"
	 viewBox="0 0 595.28 841.89" style="enable-background:new 0 0 595.28 841.89;" xml:space="preserve">
<style type="text/css">
	.st0{stroke:#000000;stroke-width:0.5;stroke-miterlimit:10;}
	.st1{font-family:'Hero-Light';}
	.st2{font-size:13.7945px;}
</style>
<text transform="matrix(1 0 0 1 33.6266 60.3451)" class="st0 st1 st2">ARTES GRÁFICAS</text>
<g>
	<g>
		<path d="M51.09,30c0-2.01,0.56-3.57,2.02-5.02c1.45-1.46,3.19-2.19,5.2-2.19h8h0.03v3.27H61c-2.16,0-3.67,0.17-4.53,0.52
			c-1.52,0.58-2.11,2.18-2.11,3.41v2.41h8.15v2.87h-8.15v1.53c0,1.37,0.33,2.48,0.99,3.34c0.73,0.96,1.77,1.45,3.12,1.45h8
			c-0.02,0-0.02,0,0,0h0.03v3.3l-8.03-0.03c-2.01,0-3.75-0.72-5.2-2.17c-1.45-1.44-2.18-3.18-2.18-5.21V30z"/>
		<path d="M66.56,44.95h-0.06l-8.03-0.03c-2.02,0-3.78-0.73-5.24-2.19c-1.46-1.45-2.2-3.21-2.2-5.25V30c0-2.09,0.63-3.65,2.03-5.06
			c1.46-1.46,3.22-2.2,5.24-2.2h8.09v3.39H61c-2.15,0-3.66,0.17-4.5,0.51c-1.44,0.55-2.08,2.08-2.08,3.36v2.36h8.15v2.98h-8.15v1.47
			c0,1.35,0.33,2.46,0.98,3.3c0.72,0.94,1.75,1.42,3.07,1.42h8.09V44.95z M58.31,22.85c-1.99,0-3.72,0.73-5.16,2.17
			c-1.38,1.38-2,2.92-2,4.98v7.48c0,2.01,0.73,3.75,2.17,5.17c1.44,1.43,3.17,2.15,5.16,2.15l7.98,0.03v-3.19h-7.98
			c-1.36,0-2.42-0.49-3.16-1.46c-0.67-0.86-1.01-2-1.01-3.37v-1.58h8.15v-2.76h-8.15V30c0-1.32,0.67-2.9,2.15-3.46
			c0.85-0.35,2.38-0.52,4.54-0.52h5.28v-3.16H58.31z"/>
	</g>
	<g>
		<path d="M136.6,30.09c0-2.03,0.72-3.75,2.16-5.2c1.44-1.44,3.17-2.16,5.2-2.16h6.37V26h-3.68c-2.15,0-3.66,0.16-4.51,0.48
			c-1.51,0.58-2.27,1.78-2.27,3.61v2.27h6.69v2.93h-6.69l-0.03,9.64h-3.23V30.09z"/>
		<path d="M139.89,44.99h-3.35v-14.9c0-2.03,0.73-3.79,2.18-5.24c1.45-1.44,3.21-2.18,5.24-2.18h6.43v3.38h-3.74
			c-2.13,0-3.64,0.16-4.49,0.47c-1.48,0.57-2.24,1.76-2.24,3.56v2.21h6.69v3.05h-6.69L139.89,44.99z M136.66,44.88h3.12l0.03-9.64
			h6.69v-2.82h-6.69v-2.33c0-1.85,0.78-3.08,2.31-3.67c0.86-0.32,2.38-0.48,4.53-0.48h3.63v-3.15h-6.31c-2,0-3.74,0.72-5.16,2.15
			c-1.42,1.42-2.14,3.16-2.14,5.15V44.88z"/>
	</g>
	<path d="M104.33,22.78c1.13,0,2,0.09,2.59,0.27c1.3,0.4,2.35,1.15,3.17,2.24c0.84,1.11,1.25,2.35,1.25,3.75
		c0,2.38-1.05,4.22-3.16,5.51c2.08,1.84,3.14,4.14,3.16,6.91v3.48h-3.26v-3.48c-0.02-1.61-0.59-2.99-1.7-4.15
		c-1.13-1.14-2.49-1.75-4.09-1.83l-5.37,0.01v9.44h-3.27V22.8h3.27L104.33,22.78z M104.3,32.18c1.21,0,2.15-0.33,2.83-0.98
		c0.62-0.59,0.93-1.31,0.93-2.17c0-1.29-0.59-2.2-1.77-2.72c-0.4-0.18-1.05-0.28-1.93-0.28l-7.44,0.03v6.15L104.3,32.18z"/>
	<path d="M129.81,35.49h-12.23v9.44h-3.3V31.92c0.02-2.59,0.95-4.79,2.78-6.61c1.83-1.81,4.04-2.73,6.63-2.73
		c2.58,0,4.79,0.91,6.62,2.73c1.84,1.82,2.77,4.02,2.79,6.61v13.02h-3.3V35.49z M129.81,32.24v-0.32c-0.02-1.68-0.63-3.11-1.81-4.29
		c-1.2-1.18-2.63-1.77-4.3-1.77c-1.63,0-3.04,0.56-4.21,1.69c-1.18,1.12-1.81,2.49-1.9,4.11v0.59H129.81z"/>
	<path d="M33.45,22.57h3.51c0,1.63,0,4.97,0,4.97s0,5.56,0,6.82c0,3.18,0.52,4.8,1.5,5.66c1.57,1.37,2.54,1.38,5.01,1.37
		c0.28,0,0.58,0,0.9,0h4.98v3.51h-5.49h-2.41c-2.18,0-4.06-0.79-5.63-2.36c-1.58-1.58-2.36-3.45-2.36-5.63V22.57z"/>
	<rect x="80.15" y="32.34" width="11.24" height="2.88"/>
	<path d="M88.44,32.34c0.08,0.47,0.13,0.95,0.13,1.44c0,4.53-3.67,8.2-8.19,8.2c-4.53,0-8.19-3.67-8.19-8.2
		c0-4.52,3.67-8.09,8.19-8.09v-2.89c-6.16,0-11.15,4.81-11.15,10.97c0,6.16,4.99,11.15,11.15,11.15c6.16,0,11.15-4.99,11.15-11.15
		c0-0.49-0.03-0.97-0.09-1.44H88.44z"/>
	<path d="M87.17,38.55c-0.27,0.39-0.58,0.75-0.91,1.12c-2.63,2.93-8.34,3.32-11.59,0.17c-3.25-3.15-3.32-8.34-0.17-11.59
		c3.15-3.25,8.34-3.32,11.59-0.17l2.06-2.12c-4.42-4.29-11.48-4.19-15.77,0.23c-4.29,4.42-4.19,11.48,0.23,15.77
		c4.42,4.29,11.2,3.85,15.48-0.57c0.34-0.35,0.77-0.55,1.05-0.93L87.17,38.55z"/>
</g>
</svg>
