<?xml version="1.0" encoding="utf-8"?>
<!-- Generator: Adobe Illustrator 24.0.2, SVG Export Plug-In . SVG Version: 6.00 Build 0)  -->
<svg version="1.1" id="Capa_1" xmlns="http://www.w3.org/2000/svg" xmlns:xlink="http://www.w3.org/1999/xlink" x="0px" y="0px"
	 viewBox="0 0 595.28 841.89" style="enable-background:new 0 0 595.28 841.89;" xml:space="preserve">
<style type="text/css">
	.st0{stroke:#000000;stroke-miterlimit:10;}
	.st1{fill:#009FE3;stroke:#009FE3;stroke-miterlimit:10;}
	.st2{fill:#E6007E;stroke:#E6007E;stroke-miterlimit:10;}
	.st3{fill:#F1D900;stroke:#F1D900;stroke-miterlimit:10;}
</style>
<circle class="st0" cx="118.83" cy="98.54" r="9.44"/>
<path class="st1" d="M137.56,65.64c0,2.68-2.17,4.86-4.85,4.86c-2.68,0-4.86-2.17-4.86-4.86c0-2.68,2.18-4.86,4.86-4.86
	C135.39,60.78,137.56,62.95,137.56,65.64z"/>
<path class="st2" d="M148.56,73.16c0,2.68-2.17,4.86-4.86,4.86c-2.68,0-4.86-2.17-4.86-4.86c0-2.68,2.17-4.86,4.86-4.86
	C146.39,68.31,148.56,70.48,148.56,73.16z"/>
<path class="st3" d="M156.76,84.93c0,2.68-2.18,4.86-4.86,4.86c-2.68,0-4.86-2.18-4.86-4.86c0-2.68,2.17-4.86,4.86-4.86
	C154.58,80.08,156.76,82.25,156.76,84.93z"/>
<path class="st0" d="M42.38,36.43h11.27c0,4.96,0,14.34,0,14.34s0,17,0,20.82c0,9.72,1.05,15.23,4.03,17.83
	c4.78,4.18,8.31,3.66,15.84,3.63c0.85,0,1.76-0.01,2.73-0.01h12.43v10.72H74.7h-7.36c-6.65,0-11.82-0.43-17.9-5.99
	c-5.49-5.02-7.06-11.77-7.06-18.42V36.43z"/>
<rect x="119.73" y="93.12" class="st0" width="39.09" height="10.4"/>
<path class="st0" d="M148.17,93.12c0.3,1.69,0.47,2.88,0.47,4.65c0,16.34-13.25,29.59-29.59,29.59s-29.59-13.25-29.59-29.59
	c0-16.34,13.25-29.59,29.59-29.59l3.92,0.26l1.48-10.58l-5.41-0.37c-22.24,0-40.27,18.03-40.27,40.27s18.03,40.27,40.27,40.27
	s40.27-18.03,40.27-40.27c0-1.76-0.11-2.95-0.33-4.65H148.17z"/>
</svg>
